<?xml version="1.0" encoding="utf-8"?>
<svg version="1.1" xmlns:xlink="http://www.w3.org/1999/xlink" width="19px" height="15px" xmlns="http://www.w3.org/2000/svg">
  <g transform="matrix(1 0 0 1 -1128 -444 )">
    <path d="M 5.13169642857143 11.2073863636364  C 5.32961309523809 11.40625  5.42857142857143 11.6477272727273  5.42857142857143 11.9318181818182  L 5.42857142857143 13.9772727272727  C 5.42857142857143 14.2613636363636  5.32961309523809 14.5028409090909  5.13169642857143 14.7017045454545  C 4.93377976190476 14.9005681818182  4.69345238095238 15  4.41071428571429 15  L 1.01785714285714 15  C 0.735119047619048 15  0.494791666666667 14.9005681818182  0.296875 14.7017045454545  C 0.0989583333333333 14.5028409090909  0 14.2613636363636  0 13.9772727272727  L 0 11.9318181818182  C 0 11.6477272727273  0.0989583333333333 11.40625  0.296875 11.2073863636364  C 0.494791666666667 11.0085227272727  0.735119047619048 10.9090909090909  1.01785714285714 10.9090909090909  L 4.41071428571429 10.9090909090909  C 4.69345238095238 10.9090909090909  4.93377976190476 11.0085227272727  5.13169642857143 11.2073863636364  Z M 5.13169642857143 5.75284090909091  C 5.32961309523809 5.95170454545454  5.42857142857143 6.19318181818182  5.42857142857143 6.47727272727273  L 5.42857142857143 8.52272727272727  C 5.42857142857143 8.80681818181818  5.32961309523809 9.04829545454545  5.13169642857143 9.24715909090909  C 4.93377976190476 9.44602272727273  4.69345238095238 9.54545454545455  4.41071428571429 9.54545454545455  L 1.01785714285714 9.54545454545455  C 0.735119047619048 9.54545454545455  0.494791666666667 9.44602272727273  0.296875 9.24715909090909  C 0.0989583333333333 9.04829545454545  0 8.80681818181818  0 8.52272727272727  L 0 6.47727272727273  C 0 6.19318181818182  0.0989583333333333 5.95170454545454  0.296875 5.75284090909091  C 0.494791666666667 5.55397727272727  0.735119047619048 5.45454545454546  1.01785714285714 5.45454545454546  L 4.41071428571429 5.45454545454546  C 4.69345238095238 5.45454545454546  4.93377976190476 5.55397727272727  5.13169642857143 5.75284090909091  Z M 11.9174107142857 11.2073863636364  C 12.1153273809524 11.40625  12.2142857142857 11.6477272727273  12.2142857142857 11.9318181818182  L 12.2142857142857 13.9772727272727  C 12.2142857142857 14.2613636363636  12.1153273809524 14.5028409090909  11.9174107142857 14.7017045454545  C 11.719494047619 14.9005681818182  11.4791666666667 15  11.1964285714286 15  L 7.80357142857143 15  C 7.52083333333333 15  7.28050595238095 14.9005681818182  7.08258928571429 14.7017045454545  C 6.88467261904762 14.5028409090909  6.78571428571429 14.2613636363636  6.78571428571429 13.9772727272727  L 6.78571428571429 11.9318181818182  C 6.78571428571429 11.6477272727273  6.88467261904762 11.40625  7.08258928571429 11.2073863636364  C 7.28050595238095 11.0085227272727  7.52083333333333 10.9090909090909  7.80357142857143 10.9090909090909  L 11.1964285714286 10.9090909090909  C 11.4791666666667 10.9090909090909  11.719494047619 11.0085227272727  11.9174107142857 11.2073863636364  Z M 5.13169642857143 0.298295454545455  C 5.32961309523809 0.49715909090909  5.42857142857143 0.738636363636363  5.42857142857143 1.02272727272727  L 5.42857142857143 3.06818181818182  C 5.42857142857143 3.35227272727273  5.32961309523809 3.59375  5.13169642857143 3.79261363636364  C 4.93377976190476 3.99147727272727  4.69345238095238 4.09090909090909  4.41071428571429 4.09090909090909  L 1.01785714285714 4.09090909090909  C 0.735119047619048 4.09090909090909  0.494791666666667 3.99147727272727  0.296875 3.79261363636364  C 0.0989583333333333 3.59375  0 3.35227272727273  0 3.06818181818182  L 0 1.02272727272727  C 0 0.738636363636363  0.0989583333333333 0.49715909090909  0.296875 0.298295454545455  C 0.494791666666667 0.0994318181818177  0.735119047619048 0  1.01785714285714 0  L 4.41071428571429 0  C 4.69345238095238 0  4.93377976190476 0.0994318181818177  5.13169642857143 0.298295454545455  Z M 11.9174107142857 5.75284090909091  C 12.1153273809524 5.95170454545454  12.2142857142857 6.19318181818182  12.2142857142857 6.47727272727273  L 12.2142857142857 8.52272727272727  C 12.2142857142857 8.80681818181818  12.1153273809524 9.04829545454545  11.9174107142857 9.24715909090909  C 11.719494047619 9.44602272727273  11.4791666666667 9.54545454545455  11.1964285714286 9.54545454545455  L 7.80357142857143 9.54545454545455  C 7.52083333333333 9.54545454545455  7.28050595238095 9.44602272727273  7.08258928571429 9.24715909090909  C 6.88467261904762 9.04829545454545  6.78571428571429 8.80681818181818  6.78571428571429 8.52272727272727  L 6.78571428571429 6.47727272727273  C 6.78571428571429 6.19318181818182  6.88467261904762 5.95170454545454  7.08258928571429 5.75284090909091  C 7.28050595238095 5.55397727272727  7.52083333333333 5.45454545454546  7.80357142857143 5.45454545454546  L 11.1964285714286 5.45454545454546  C 11.4791666666667 5.45454545454546  11.719494047619 5.55397727272727  11.9174107142857 5.75284090909091  Z M 18.703125 11.2073863636364  C 18.9010416666667 11.40625  19 11.6477272727273  19 11.9318181818182  L 19 13.9772727272727  C 19 14.2613636363636  18.9010416666667 14.5028409090909  18.703125 14.7017045454545  C 18.5052083333333 14.9005681818182  18.264880952381 15  17.9821428571429 15  L 14.5892857142857 15  C 14.3065476190476 15  14.0662202380952 14.9005681818182  13.8683035714286 14.7017045454545  C 13.6703869047619 14.5028409090909  13.5714285714286 14.2613636363636  13.5714285714286 13.9772727272727  L 13.5714285714286 11.9318181818182  C 13.5714285714286 11.6477272727273  13.6703869047619 11.40625  13.8683035714286 11.2073863636364  C 14.0662202380952 11.0085227272727  14.3065476190476 10.9090909090909  14.5892857142857 10.9090909090909  L 17.9821428571429 10.9090909090909  C 18.264880952381 10.9090909090909  18.5052083333333 11.0085227272727  18.703125 11.2073863636364  Z M 11.9174107142857 0.298295454545455  C 12.1153273809524 0.49715909090909  12.2142857142857 0.738636363636363  12.2142857142857 1.02272727272727  L 12.2142857142857 3.06818181818182  C 12.2142857142857 3.35227272727273  12.1153273809524 3.59375  11.9174107142857 3.79261363636364  C 11.719494047619 3.99147727272727  11.4791666666667 4.09090909090909  11.1964285714286 4.09090909090909  L 7.80357142857143 4.09090909090909  C 7.52083333333333 4.09090909090909  7.28050595238095 3.99147727272727  7.08258928571429 3.79261363636364  C 6.88467261904762 3.59375  6.78571428571429 3.35227272727273  6.78571428571429 3.06818181818182  L 6.78571428571429 1.02272727272727  C 6.78571428571429 0.738636363636363  6.88467261904762 0.49715909090909  7.08258928571429 0.298295454545455  C 7.28050595238095 0.0994318181818177  7.52083333333333 0  7.80357142857143 0  L 11.1964285714286 0  C 11.4791666666667 0  11.719494047619 0.0994318181818177  11.9174107142857 0.298295454545455  Z M 18.703125 5.75284090909091  C 18.9010416666667 5.95170454545454  19 6.19318181818182  19 6.47727272727273  L 19 8.52272727272727  C 19 8.80681818181818  18.9010416666667 9.04829545454545  18.703125 9.24715909090909  C 18.5052083333333 9.44602272727273  18.264880952381 9.54545454545455  17.9821428571429 9.54545454545455  L 14.5892857142857 9.54545454545455  C 14.3065476190476 9.54545454545455  14.0662202380952 9.44602272727273  13.8683035714286 9.24715909090909  C 13.6703869047619 9.04829545454545  13.5714285714286 8.80681818181818  13.5714285714286 8.52272727272727  L 13.5714285714286 6.47727272727273  C 13.5714285714286 6.19318181818182  13.6703869047619 5.95170454545454  13.8683035714286 5.75284090909091  C 14.0662202380952 5.55397727272727  14.3065476190476 5.45454545454546  14.5892857142857 5.45454545454546  L 17.9821428571429 5.45454545454546  C 18.264880952381 5.45454545454546  18.5052083333333 5.55397727272727  18.703125 5.75284090909091  Z M 18.703125 0.298295454545455  C 18.9010416666667 0.49715909090909  19 0.738636363636363  19 1.02272727272727  L 19 3.06818181818182  C 19 3.35227272727273  18.9010416666667 3.59375  18.703125 3.79261363636364  C 18.5052083333333 3.99147727272727  18.264880952381 4.09090909090909  17.9821428571429 4.09090909090909  L 14.5892857142857 4.09090909090909  C 14.3065476190476 4.09090909090909  14.0662202380952 3.99147727272727  13.8683035714286 3.79261363636364  C 13.6703869047619 3.59375  13.5714285714286 3.35227272727273  13.5714285714286 3.06818181818182  L 13.5714285714286 1.02272727272727  C 13.5714285714286 0.738636363636363  13.6703869047619 0.49715909090909  13.8683035714286 0.298295454545455  C 14.0662202380952 0.0994318181818177  14.3065476190476 0  14.5892857142857 0  L 17.9821428571429 0  C 18.264880952381 0  18.5052083333333 0.0994318181818177  18.703125 0.298295454545455  Z " fill-rule="nonzero" fill="#000000" stroke="none" transform="matrix(1 0 0 1 1128 444 )" />
  </g>
</svg>