<?xml version="1.0" encoding="utf-8"?>
<svg version="1.1" xmlns:xlink="http://www.w3.org/1999/xlink" width="18px" height="15px" xmlns="http://www.w3.org/2000/svg">
  <g transform="matrix(1 0 0 1 -1160 -444 )">
    <path d="M 7.89663461538462 8.58664772727273  C 8.17067307692308 8.85653409090909  8.30769230769231 9.17613636363636  8.30769230769231 9.54545454545455  L 8.30769230769231 13.6363636363636  C 8.30769230769231 14.0056818181818  8.17067307692308 14.3252840909091  7.89663461538462 14.5951704545455  C 7.62259615384616 14.8650568181818  7.29807692307692 15  6.92307692307692 15  L 1.38461538461538 15  C 1.00961538461538 15  0.685096153846154 14.8650568181818  0.411057692307692 14.5951704545455  C 0.137019230769231 14.3252840909091  0 14.0056818181818  0 13.6363636363636  L 0 9.54545454545455  C 0 9.17613636363636  0.137019230769231 8.85653409090909  0.411057692307692 8.58664772727273  C 0.685096153846154 8.31676136363636  1.00961538461538 8.18181818181818  1.38461538461538 8.18181818181818  L 6.92307692307692 8.18181818181818  C 7.29807692307692 8.18181818181818  7.62259615384616 8.31676136363636  7.89663461538462 8.58664772727273  Z M 7.89663461538462 0.404829545454545  C 8.17067307692308 0.674715909090908  8.30769230769231 0.994318181818182  8.30769230769231 1.36363636363636  L 8.30769230769231 5.45454545454546  C 8.30769230769231 5.82386363636363  8.17067307692308 6.14346590909091  7.89663461538462 6.41335227272727  C 7.62259615384616 6.68323863636364  7.29807692307692 6.81818181818182  6.92307692307692 6.81818181818182  L 1.38461538461538 6.81818181818182  C 1.00961538461538 6.81818181818182  0.685096153846154 6.68323863636364  0.411057692307692 6.41335227272727  C 0.137019230769231 6.14346590909091  0 5.82386363636363  0 5.45454545454546  L 0 1.36363636363636  C 0 0.994318181818182  0.137019230769231 0.674715909090908  0.411057692307692 0.404829545454545  C 0.685096153846154 0.134943181818181  1.00961538461538 0  1.38461538461538 0  L 6.92307692307692 0  C 7.29807692307692 0  7.62259615384616 0.134943181818181  7.89663461538462 0.404829545454545  Z M 17.5889423076923 8.58664772727273  C 17.8629807692308 8.85653409090909  18 9.17613636363636  18 9.54545454545455  L 18 13.6363636363636  C 18 14.0056818181818  17.8629807692308 14.3252840909091  17.5889423076923 14.5951704545455  C 17.3149038461538 14.8650568181818  16.9903846153846 15  16.6153846153846 15  L 11.0769230769231 15  C 10.7019230769231 15  10.3774038461538 14.8650568181818  10.1033653846154 14.5951704545455  C 9.82932692307692 14.3252840909091  9.69230769230769 14.0056818181818  9.69230769230769 13.6363636363636  L 9.69230769230769 9.54545454545455  C 9.69230769230769 9.17613636363636  9.82932692307692 8.85653409090909  10.1033653846154 8.58664772727273  C 10.3774038461538 8.31676136363636  10.7019230769231 8.18181818181818  11.0769230769231 8.18181818181818  L 16.6153846153846 8.18181818181818  C 16.9903846153846 8.18181818181818  17.3149038461538 8.31676136363636  17.5889423076923 8.58664772727273  Z M 17.5889423076923 0.404829545454545  C 17.8629807692308 0.674715909090908  18 0.994318181818182  18 1.36363636363636  L 18 5.45454545454546  C 18 5.82386363636363  17.8629807692308 6.14346590909091  17.5889423076923 6.41335227272727  C 17.3149038461538 6.68323863636364  16.9903846153846 6.81818181818182  16.6153846153846 6.81818181818182  L 11.0769230769231 6.81818181818182  C 10.7019230769231 6.81818181818182  10.3774038461538 6.68323863636364  10.1033653846154 6.41335227272727  C 9.82932692307692 6.14346590909091  9.69230769230769 5.82386363636363  9.69230769230769 5.45454545454546  L 9.69230769230769 1.36363636363636  C 9.69230769230769 0.994318181818182  9.82932692307692 0.674715909090908  10.1033653846154 0.404829545454545  C 10.3774038461538 0.134943181818181  10.7019230769231 0  11.0769230769231 0  L 16.6153846153846 0  C 16.9903846153846 0  17.3149038461538 0.134943181818181  17.5889423076923 0.404829545454545  Z " fill-rule="nonzero" fill="#cccccc" stroke="none" transform="matrix(1 0 0 1 1160 444 )" />
  </g>
</svg>