<?xml version="1.0" encoding="utf-8"?>
<svg version="1.1" xmlns:xlink="http://www.w3.org/1999/xlink" width="19px" height="19px" xmlns="http://www.w3.org/2000/svg">
  <g transform="matrix(1 0 0 1 -1015 -123 )">
    <path d="M 3.5625 0  L 15.4375 0  C 16.4188368055556 0  17.2579210069444 0.34841579861111  17.9547526041667 1.04524739583333  C 18.6515842013889 1.74207899305555  19 2.58116319444444  19 3.5625  L 19 15.4375  C 19 16.4188368055556  18.6515842013889 17.2579210069444  17.9547526041667 17.9547526041667  C 17.2579210069444 18.6515842013889  16.4188368055556 19  15.4375 19  L 13.1119791666667 19  L 13.1119791666667 11.6399739583333  L 15.5735677083333 11.6399739583333  L 15.9446614583333 8.77018229166667  L 13.1119791666667 8.77018229166667  L 13.1119791666667 6.939453125  C 13.1119791666667 6.47764756944444  13.2088758680556 6.13129340277778  13.4026692708333 5.900390625  C 13.5964626736111 5.66948784722222  13.9737413194444 5.55403645833333  14.5345052083333 5.55403645833333  L 16.0436197916667 5.54166666666667  L 16.0436197916667 2.98111979166667  C 15.5240885416667 2.90690104166667  14.7901475694444 2.86979166666667  13.841796875 2.86979166666667  C 12.7202690972222 2.86979166666667  11.8234592013889 3.19965277777778  11.1513671875 3.859375  C 10.4792751736111 4.51909722222222  10.1432291666667 5.45095486111111  10.1432291666667 6.65494791666667  L 10.1432291666667 8.77018229166667  L 7.66927083333333 8.77018229166667  L 7.66927083333333 11.6399739583333  L 10.1432291666667 11.6399739583333  L 10.1432291666667 19  L 3.5625 19  C 2.58116319444444 19  1.74207899305556 18.6515842013889  1.04524739583333 17.9547526041667  C 0.348415798611111 17.2579210069444  0 16.4188368055556  0 15.4375  L 0 3.5625  C 0 2.58116319444444  0.348415798611111 1.74207899305555  1.04524739583333 1.04524739583333  C 1.74207899305556 0.34841579861111  2.58116319444444 0  3.5625 0  Z " fill-rule="nonzero" fill="#999999" stroke="none" transform="matrix(1 0 0 1 1015 123 )" />
  </g>
</svg>