<?xml version="1.0" encoding="utf-8"?>
<svg version="1.1" xmlns:xlink="http://www.w3.org/1999/xlink" width="19px" height="19px" xmlns="http://www.w3.org/2000/svg">
  <g transform="matrix(1 0 0 1 -1047 -123 )">
    <path d="M 11.7389322916667 11.7389322916667  C 12.357421875 11.1204427083333  12.6666666666667 10.3741319444444  12.6666666666667 9.5  C 12.6666666666667 8.62586805555555  12.357421875 7.87955729166667  11.7389322916667 7.26106770833333  C 11.1204427083333 6.642578125  10.3741319444444 6.33333333333333  9.5 6.33333333333333  C 8.62586805555556 6.33333333333333  7.87955729166667 6.642578125  7.26106770833333 7.26106770833333  C 6.642578125 7.87955729166667  6.33333333333333 8.62586805555555  6.33333333333333 9.5  C 6.33333333333333 10.3741319444444  6.642578125 11.1204427083333  7.26106770833333 11.7389322916667  C 7.87955729166667 12.357421875  8.62586805555556 12.6666666666667  9.5 12.6666666666667  C 10.3741319444444 12.6666666666667  11.1204427083333 12.357421875  11.7389322916667 11.7389322916667  Z M 12.951171875 6.048828125  C 13.8995225694444 6.99717881944444  14.3736979166667 8.14756944444444  14.3736979166667 9.5  C 14.3736979166667 10.8524305555556  13.8995225694444 12.0028211805556  12.951171875 12.951171875  C 12.0028211805556 13.8995225694444  10.8524305555556 14.3736979166667  9.5 14.3736979166667  C 8.14756944444444 14.3736979166667  6.99717881944444 13.8995225694444  6.048828125 12.951171875  C 5.10047743055556 12.0028211805556  4.62630208333333 10.8524305555556  4.62630208333333 9.5  C 4.62630208333333 8.14756944444444  5.10047743055556 6.99717881944444  6.048828125 6.048828125  C 6.99717881944444 5.10047743055555  8.14756944444444 4.62630208333333  9.5 4.62630208333333  C 10.8524305555556 4.62630208333333  12.0028211805556 5.10047743055555  12.951171875 6.048828125  Z M 15.3756510416667 3.62434895833333  C 15.5983072916667 3.84700520833333  15.7096354166667 4.11501736111111  15.7096354166667 4.42838541666667  C 15.7096354166667 4.74175347222222  15.5983072916667 5.009765625  15.3756510416667 5.232421875  C 15.1529947916667 5.455078125  14.8849826388889 5.56640625  14.5716145833333 5.56640625  C 14.2582465277778 5.56640625  13.990234375 5.455078125  13.767578125 5.232421875  C 13.544921875 5.009765625  13.43359375 4.74175347222222  13.43359375 4.42838541666667  C 13.43359375 4.11501736111111  13.544921875 3.84700520833333  13.767578125 3.62434895833333  C 13.990234375 3.40169270833333  14.2582465277778 3.29036458333333  14.5716145833333 3.29036458333333  C 14.8849826388889 3.29036458333333  15.1529947916667 3.40169270833333  15.3756510416667 3.62434895833333  Z M 10.4462890625 1.70084635416667  C 9.87315538194445 1.70496961805555  9.55772569444445 1.70703125  9.5 1.70703125  C 9.44227430555556 1.70703125  9.12684461805556 1.70496961805555  8.5537109375 1.70084635416667  C 7.98057725694444 1.69672309027778  7.54557291666667 1.69672309027778  7.24869791666667 1.70084635416667  C 6.95182291666667 1.70496961805555  6.55392795138889 1.71733940972222  6.05501302083333 1.73795572916667  C 5.55609809027778 1.75857204861111  5.13140190972222 1.7998046875  4.78092447916667 1.86165364583333  C 4.43044704861111 1.92350260416667  4.13563368055556 1.99978298611111  3.896484375 2.09049479166667  C 3.48415798611111 2.25542534722222  3.12131076388889 2.49457465277778  2.80794270833333 2.80794270833333  C 2.49457465277778 3.12131076388889  2.25542534722222 3.48415798611111  2.09049479166667 3.896484375  C 1.99978298611111 4.13563368055555  1.92350260416667 4.43044704861111  1.86165364583333 4.78092447916667  C 1.7998046875 5.13140190972222  1.75857204861111 5.55609809027778  1.73795572916667 6.05501302083333  C 1.71733940972222 6.55392795138889  1.70496961805556 6.95182291666667  1.70084635416667 7.24869791666667  C 1.69672309027778 7.54557291666667  1.69672309027778 7.98057725694444  1.70084635416667 8.5537109375  C 1.70496961805556 9.12684461805555  1.70703125 9.44227430555555  1.70703125 9.5  C 1.70703125 9.55772569444444  1.70496961805556 9.87315538194444  1.70084635416667 10.4462890625  C 1.69672309027778 11.0194227430556  1.69672309027778 11.4544270833333  1.70084635416667 11.7513020833333  C 1.70496961805556 12.0481770833333  1.71733940972222 12.4460720486111  1.73795572916667 12.9449869791667  C 1.75857204861111 13.4439019097222  1.7998046875 13.8685980902778  1.86165364583333 14.2190755208333  C 1.92350260416667 14.5695529513889  1.99978298611111 14.8643663194444  2.09049479166667 15.103515625  C 2.25542534722222 15.5158420138889  2.49457465277778 15.8786892361111  2.80794270833333 16.1920572916667  C 3.12131076388889 16.5054253472222  3.48415798611111 16.7445746527778  3.896484375 16.9095052083333  C 4.13563368055556 17.0002170138889  4.43044704861111 17.0764973958333  4.78092447916667 17.1383463541667  C 5.13140190972222 17.2001953125  5.55609809027778 17.2414279513889  6.05501302083333 17.2620442708333  C 6.55392795138889 17.2826605902778  6.95182291666667 17.2950303819444  7.24869791666667 17.2991536458333  C 7.54557291666667 17.3032769097222  7.98057725694444 17.3032769097222  8.5537109375 17.2991536458333  C 9.12684461805556 17.2950303819444  9.44227430555556 17.29296875  9.5 17.29296875  C 9.55772569444445 17.29296875  9.87315538194445 17.2950303819444  10.4462890625 17.2991536458333  C 11.0194227430556 17.3032769097222  11.4544270833333 17.3032769097222  11.7513020833333 17.2991536458333  C 12.0481770833333 17.2950303819444  12.4460720486111 17.2826605902778  12.9449869791667 17.2620442708333  C 13.4439019097222 17.2414279513889  13.8685980902778 17.2001953125  14.2190755208333 17.1383463541667  C 14.5695529513889 17.0764973958333  14.8643663194444 17.0002170138889  15.103515625 16.9095052083333  C 15.5158420138889 16.7445746527778  15.8786892361111 16.5054253472222  16.1920572916667 16.1920572916667  C 16.5054253472222 15.8786892361111  16.7445746527778 15.5158420138889  16.9095052083333 15.103515625  C 17.0002170138889 14.8643663194444  17.0764973958333 14.5695529513889  17.1383463541667 14.2190755208333  C 17.2001953125 13.8685980902778  17.2414279513889 13.4439019097222  17.2620442708333 12.9449869791667  C 17.2826605902778 12.4460720486111  17.2950303819444 12.0481770833333  17.2991536458333 11.7513020833333  C 17.3032769097222 11.4544270833333  17.3032769097222 11.0194227430556  17.2991536458333 10.4462890625  C 17.2950303819444 9.87315538194444  17.29296875 9.55772569444444  17.29296875 9.5  C 17.29296875 9.44227430555555  17.2950303819444 9.12684461805555  17.2991536458333 8.5537109375  C 17.3032769097222 7.98057725694444  17.3032769097222 7.54557291666667  17.2991536458333 7.24869791666667  C 17.2950303819444 6.95182291666667  17.2826605902778 6.55392795138889  17.2620442708333 6.05501302083333  C 17.2414279513889 5.55609809027778  17.2001953125 5.13140190972222  17.1383463541667 4.78092447916667  C 17.0764973958333 4.43044704861111  17.0002170138889 4.13563368055555  16.9095052083333 3.896484375  C 16.7445746527778 3.48415798611111  16.5054253472222 3.12131076388889  16.1920572916667 2.80794270833333  C 15.8786892361111 2.49457465277778  15.5158420138889 2.25542534722222  15.103515625 2.09049479166667  C 14.8643663194444 1.99978298611111  14.5695529513889 1.92350260416667  14.2190755208333 1.86165364583333  C 13.8685980902778 1.7998046875  13.4439019097222 1.75857204861111  12.9449869791667 1.73795572916667  C 12.4460720486111 1.71733940972222  12.0481770833333 1.70496961805555  11.7513020833333 1.70084635416667  C 11.4544270833333 1.69672309027778  11.0194227430556 1.69672309027778  10.4462890625 1.70084635416667  Z M 18.9381510416667 5.57877604166667  C 18.9793836805556 6.30447048611111  19 7.61154513888889  19 9.5  C 19 11.3884548611111  18.9793836805556 12.6955295138889  18.9381510416667 13.4212239583333  C 18.8556857638889 15.1365017361111  18.3444010416667 16.4641927083333  17.404296875 17.404296875  C 16.4641927083333 18.3444010416667  15.1365017361111 18.8556857638889  13.4212239583333 18.9381510416667  C 12.6955295138889 18.9793836805556  11.3884548611111 19  9.5 19  C 7.61154513888889 19  6.30447048611111 18.9793836805556  5.57877604166667 18.9381510416667  C 3.86349826388889 18.8556857638889  2.53580729166667 18.3444010416667  1.595703125 17.404296875  C 0.655598958333333 16.4641927083333  0.144314236111111 15.1365017361111  0.0618489583333333 13.4212239583333  C 0.0206163194444444 12.6955295138889  0 11.3884548611111  0 9.5  C 0 7.61154513888889  0.0206163194444444 6.30447048611111  0.0618489583333333 5.57877604166667  C 0.144314236111111 3.86349826388889  0.655598958333333 2.53580729166667  1.595703125 1.595703125  C 2.53580729166667 0.655598958333334  3.86349826388889 0.14431423611111  5.57877604166667 0.061848958333334  C 6.30447048611111 0.0206163194444419  7.61154513888889 0  9.5 0  C 11.3884548611111 0  12.6955295138889 0.0206163194444419  13.4212239583333 0.061848958333334  C 15.1365017361111 0.14431423611111  16.4641927083333 0.655598958333334  17.404296875 1.595703125  C 18.3444010416667 2.53580729166667  18.8556857638889 3.86349826388889  18.9381510416667 5.57877604166667  Z " fill-rule="nonzero" fill="#999999" stroke="none" transform="matrix(1 0 0 1 1047 123 )" />
  </g>
</svg>