<?xml version="1.0" encoding="utf-8"?>
<svg version="1.1" xmlns:xlink="http://www.w3.org/1999/xlink" width="52px" height="47px" xmlns="http://www.w3.org/2000/svg">
  <g transform="matrix(1 0 0 1 -755 -813 )">
    <path d="M 51.8892045454545 36.4183238636364  C 51.9630681818182 36.5741003787879  52 36.8077651515151  52 37.1193181818182  C 52 37.7201704545455  51.8768939393939 38.5046164772727  51.6306818181818 39.47265625  C 51.3844696969697 40.4406960227273  51.125946969697 41.2028882575758  50.8551136363636 41.7592329545455  C 50.3380681818182 42.8719223484848  48.8361742424242 44.0513731060606  46.3494318181818 45.2975852272727  C 44.0350378787879 46.4325284090909  41.7452651515152 47  39.4801136363636 47  C 38.8153409090909 47  38.1628787878788 46.9610558712121  37.5227272727273 46.8831676136364  C 36.8825757575758 46.8052793560606  36.1747159090909 46.6661931818182  35.3991477272727 46.4659090909091  C 34.6235795454545 46.265625  34.0449810606061 46.1042850378788  33.6633522727273 45.9818892045455  C 33.2817234848485 45.8594933712121  32.5984848484849 45.6313920454545  31.6136363636364 45.2975852272727  C 30.6287878787879 44.9637784090909  30.0255681818182 44.7634943181818  29.8039772727273 44.6967329545455  C 27.3910984848485 43.9178503787879  25.2367424242424 42.9943181818182  23.3409090909091 41.9261363636364  C 20.2140151515152 40.1680871212121  16.9640151515152 37.764678030303  13.5909090909091 34.7159090909091  C 10.217803030303 31.6671401515151  7.55871212121212 28.7296401515152  5.61363636363636 25.9034090909091  C 4.43181818181818 24.1898674242424  3.41003787878788 22.2426609848485  2.54829545454545 20.0617897727273  C 2.47443181818182 19.8615056818182  2.25284090909091 19.3162878787879  1.88352272727273 18.4261363636364  C 1.51420454545455 17.5359848484848  1.26183712121212 16.9184422348485  1.12642045454545 16.5735085227273  C 0.991003787878788 16.2285748106061  0.8125 15.7056107954545  0.590909090909091 15.0046164772727  C 0.369318181818182 14.3036221590909  0.215435606060606 13.6638257575758  0.129261363636364 13.0852272727273  C 0.0430871212121212 12.5066287878788  0 11.9169034090909  0 11.3160511363636  C 0 9.26870265151515  0.627840909090909 7.19910037878787  1.88352272727273 5.10724431818182  C 3.26231060606061 2.85961174242424  4.56723484848485 1.50213068181818  5.79829545454546 1.03480113636363  C 6.41382575757576 0.790009469696966  7.25710227272727 0.556344696969692  8.328125 0.333806818181817  C 9.39914772727273 0.111268939393937  10.2670454545455 0  10.9318181818182 0  C 11.2765151515152 0  11.5350378787879 0.0333806818181828  11.7073863636364 0.100142045454543  C 12.1505681818182 0.233664772727274  12.8030303030303 1.07930871212121  13.6647727272727 2.63707386363637  C 13.9356060606061 3.05989583333333  14.3049242424242 3.6607481060606  14.7727272727273 4.43963068181818  C 15.2405303030303 5.21851325757575  15.6714015151515 5.92507102272727  16.0653409090909 6.55930397727273  C 16.4592803030303 7.19353693181818  16.8409090909091 7.78882575757575  17.2102272727273 8.34517045454546  C 17.2840909090909 8.4341856060606  17.4995265151515 8.71235795454546  17.8565340909091 9.1796875  C 18.2135416666667 9.64701704545454  18.4782196969697 10.042021780303  18.6505681818182 10.3647017045455  C 18.8229166666667 10.6873816287879  18.9090909090909 11.0044981060606  18.9090909090909 11.3160511363636  C 18.9090909090909 11.7611268939394  18.5582386363636 12.3174715909091  17.8565340909091 12.9850852272727  C 17.1548295454545 13.6526988636364  16.391571969697 14.264678030303  15.5667613636364 14.8210227272727  C 14.7419507575758 15.3773674242424  13.9786931818182 15.9670928030303  13.2769886363636 16.5901988636364  C 12.5752840909091 17.2133049242424  12.2244318181818 17.7251420454545  12.2244318181818 18.1257102272727  C 12.2244318181818 18.3259943181818  12.2859848484848 18.5763494318182  12.4090909090909 18.8767755681818  C 12.532196969697 19.1772017045455  12.6368371212121 19.405303030303  12.7230113636364 19.5610795454545  C 12.8091856060606 19.7168560606061  12.9815340909091 19.9839015151515  13.2400568181818 20.3622159090909  C 13.4985795454545 20.7405303030303  13.6401515151515 20.9519412878788  13.6647727272727 20.9964488636364  C 15.5359848484848 24.0452178030303  17.6780303030303 26.6600378787879  20.0909090909091 28.8409090909091  C 22.5037878787879 31.0217803030303  25.3967803030303 32.9578598484848  28.7698863636364 34.6491477272727  C 28.8191287878788 34.6714015151515  29.0530303030303 34.7993607954545  29.4715909090909 35.0330255681818  C 29.8901515151515 35.2666903409091  30.1856060606061 35.4224668560606  30.3579545454545 35.5003551136364  C 30.530303030303 35.5782433712121  30.7826704545455 35.672821969697  31.1150568181818 35.7840909090909  C 31.4474431818182 35.8953598484848  31.7244318181818 35.9509943181818  31.9460227272727 35.9509943181818  C 32.3892045454545 35.9509943181818  32.9554924242424 35.6338778409091  33.6448863636364 34.9996448863636  C 34.3342803030303 34.3654119318182  34.9867424242424 33.6755445075758  35.6022727272727 32.9300426136364  C 36.217803030303 32.184540719697  36.8948863636364 31.4946732954545  37.6335227272727 30.8604403409091  C 38.3721590909091 30.2262073863636  38.9876893939394 29.9090909090909  39.4801136363636 29.9090909090909  C 39.8248106060606 29.9090909090909  40.1756628787879 29.9869791666667  40.5326704545455 30.1427556818182  C 40.889678030303 30.2985321969697  41.3267045454545 30.5377604166667  41.84375 30.8604403409091  C 42.3607954545455 31.1831202651515  42.6685606060606 31.3778409090909  42.7670454545455 31.4446022727273  C 43.3825757575758 31.7784090909091  44.0411931818182 32.1233428030303  44.7428977272727 32.4794034090909  C 45.4446022727273 32.8354640151515  46.2263257575758 33.2249053030303  47.0880681818182 33.6477272727273  C 47.9498106060606 34.0705492424242  48.6145833333333 34.4043560606061  49.0823863636364 34.6491477272727  C 50.8058712121212 35.4280303030303  51.7414772727273 36.0177556818182  51.8892045454545 36.4183238636364  Z " fill-rule="nonzero" fill="#f4e1cc" stroke="none" transform="matrix(1 0 0 1 755 813 )" />
  </g>
</svg>