<?xml version="1.0" encoding="utf-8"?>
<svg version="1.1" xmlns:xlink="http://www.w3.org/1999/xlink" width="72px" height="122px" xmlns="http://www.w3.org/2000/svg">
  <g transform="matrix(1 0 0 1 -930 -338 )">
    <path d="M 70.7628865979381 58.188376753507  C 71.5876288659794 59.0033400133601  72 59.940547762191  72 61  C 72 62.0594522378089  71.5876288659794 62.9966599866399  70.7628865979381 63.811623246493  L 13.1134020618557 120.77755511022  C 12.2886597938144 121.592518370073  11.340206185567 122  10.2680412371134 122  C 9.19587628865979 122  8.24742268041237 121.592518370073  7.42268041237113 120.77755511022  L 1.23711340206186 114.665330661323  C 0.412371134020619 113.85036740147  0 112.913159652639  0 111.85370741483  C 0 110.794255177021  0.412371134020619 109.85704742819  1.23711340206186 109.042084168337  L 49.8556701030928 61  L 1.23711340206186 12.9579158316633  C 0.412371134020619 12.1429525718103  0 11.2057448229793  0 10.1462925851703  C 0 9.08684034736137  0.412371134020619 8.14963259853038  1.23711340206186 7.33466933867735  L 7.42268041237113 1.22244488977956  C 8.24742268041237 0.407481629926516  9.19587628865979 0  10.2680412371134 0  C 11.340206185567 0  12.2886597938144 0.407481629926516  13.1134020618557 1.22244488977956  L 70.7628865979381 58.188376753507  Z " fill-rule="nonzero" fill="#010100" stroke="none" fill-opacity="0.466666666666667" transform="matrix(1 0 0 1 930 338 )" />
  </g>
</svg>