<?xml version="1.0" encoding="utf-8"?>
<svg version="1.1" xmlns:xlink="http://www.w3.org/1999/xlink" width="72px" height="122px" xmlns="http://www.w3.org/2000/svg">
  <g transform="matrix(1 0 0 1 -77 -338 )">
    <path d="M 70.7628865979381 7.33466933867735  C 71.5876288659794 8.14963259853038  72 9.08684034736137  72 10.1462925851703  C 72 11.2057448229793  71.5876288659794 12.1429525718103  70.7628865979381 12.9579158316633  L 22.1443298969072 61  L 70.7628865979381 109.042084168337  C 71.5876288659794 109.85704742819  72 110.794255177021  72 111.85370741483  C 72 112.913159652639  71.5876288659794 113.85036740147  70.7628865979381 114.665330661323  L 64.5773195876289 120.77755511022  C 63.7525773195876 121.592518370073  62.8041237113402 122  61.7319587628866 122  C 60.659793814433 122  59.7113402061856 121.592518370073  58.8865979381443 120.77755511022  L 1.23711340206186 63.811623246493  C 0.412371134020619 62.9966599866399  0 62.0594522378089  0 61  C 0 59.940547762191  0.412371134020619 59.0033400133601  1.23711340206186 58.188376753507  L 58.8865979381443 1.22244488977956  C 59.7113402061856 0.407481629926516  60.659793814433 0  61.7319587628866 0  C 62.8041237113402 0  63.7525773195876 0.407481629926516  64.5773195876289 1.22244488977956  L 70.7628865979381 7.33466933867735  Z " fill-rule="nonzero" fill="#010100" stroke="none" fill-opacity="0.466666666666667" transform="matrix(1 0 0 1 77 338 )" />
  </g>
</svg>