<?xml version="1.0" encoding="utf-8"?>
<svg version="1.1" xmlns:xlink="http://www.w3.org/1999/xlink" width="25px" height="46px" xmlns="http://www.w3.org/2000/svg">
  <g transform="matrix(1 0 0 1 -18 -155 )">
    <path d="M 24.5704467353952 2.76553106212425  C 24.8568155784651 3.07281229124916  25 3.42618570474281  25 3.82565130260521  C 25 4.2251169004676  24.8568155784651 4.57849031396125  24.5704467353952 4.88577154308617  L 7.68900343642612 23  L 24.5704467353952 41.1142284569138  C 24.8568155784651 41.4215096860387  25 41.7748830995324  25 42.1743486973948  C 25 42.5738142952572  24.8568155784651 42.9271877087508  24.5704467353952 43.2344689378758  L 22.4226804123711 45.5390781563126  C 22.1363115693013 45.8463593854375  21.8069873997709 46  21.4347079037801 46  C 21.0624284077892 46  20.7331042382589 45.8463593854375  20.446735395189 45.5390781563126  L 0.429553264604811 24.060120240481  C 0.143184421534937 23.752839011356  0 23.3994655978624  0 23  C 0 22.6005344021376  0.143184421534937 22.247160988644  0.429553264604811 21.939879759519  L 20.446735395189 0.460921843687375  C 20.7331042382589 0.153640614562457  21.0624284077892 0  21.4347079037801 0  C 21.8069873997709 0  22.1363115693013 0.153640614562457  22.4226804123711 0.460921843687375  L 24.5704467353952 2.76553106212425  Z " fill-rule="nonzero" fill="#010100" stroke="none" fill-opacity="0.466666666666667" transform="matrix(1 0 0 1 18 155 )" />
  </g>
</svg>