<?xml version="1.0" encoding="utf-8"?>
<svg version="1.1" xmlns:xlink="http://www.w3.org/1999/xlink" width="49px" height="45px" xmlns="http://www.w3.org/2000/svg">
  <g transform="matrix(1 0 0 1 -400 -816 )">
    <path d="M 48.9478353442158 1.70987215909091  C 49.0289803643246 2.14666193181818  48.9536314170807 2.56747159090909  48.721788502484 2.97230113636364  L 26.4648687012065 43.8813920454545  C 26.0707357463922 44.6271306818182  25.4099834397918 45  24.4826117814053 45  C 24.3666903241069 45  24.1928081381595 44.9786931818182  23.9609652235628 44.9360795454545  C 23.4509108114502 44.8295454545455  23.0393896380412 44.58984375  22.7264017033357 44.2169744318182  C 22.4134137686302 43.8441051136364  22.2569198012775 43.4232954545455  23 42.9545454545455  L 23 24  L 2.22569198012775 24  C 1.71563756801514 24.5454545454545  1.25774781168678 24.4016335227273  0.852022711142654 24.1139914772727  C 0.446297610598533 23.8263494318182  0.185474331677313 23.4481534090909  0.0695528743789922 22.9794034090909  C -0.0463685829193281 22.5106534090909  0 22.0632102272727  0.208658623136977 21.6370738636364  C 0.417317246273953 21.2109375  0.753489472439082 20.8913352272727  1.21717530163236 20.6782670454545  L 45.7310149041874 0.223721590909092  C 46.032410693163 0.0745738636363608  46.3685829193281 0  46.7395315826828 0  C 47.3655074520937 0  47.8871540099361 0.202414772727268  48.3044712562101 0.60724431818182  C 48.652235628105 0.905539772727268  48.8666903241069 1.27308238636363  48.9478353442158 1.70987215909091  Z " fill-rule="nonzero" fill="#f6e3cc" stroke="none" transform="matrix(1 0 0 1 400 816 )" />
  </g>
</svg>