<?xml version="1.0" encoding="utf-8"?>
<svg version="1.1" xmlns:xlink="http://www.w3.org/1999/xlink" width="67px" height="132px" xmlns="http://www.w3.org/2000/svg">
  <g transform="matrix(1 0 0 1 -811 -222 )">
    <path d="M 65.8487972508591 62.9579158316633  C 66.6162657502864 63.8396793587174  67 64.8537074148297  67 66  C 67 67.1462925851703  66.6162657502864 68.1603206412826  65.8487972508591 69.0420841683367  L 12.2027491408935 130.677354709419  C 11.4352806414662 131.559118236473  10.5526918671249 132  9.55498281786942 132  C 8.55727376861398 132  7.67468499427262 131.559118236473  6.90721649484536 130.677354709419  L 1.15120274914089 124.064128256513  C 0.383734249713631 123.182364729459  0 122.168336673347  0 121.022044088176  C 0 119.875751503006  0.383734249713631 118.861723446894  1.15120274914089 117.97995991984  L 46.393470790378 66  L 1.15120274914089 14.0200400801603  C 0.383734249713631 13.1382765531062  0 12.124248496994  0 10.9779559118237  C 0 9.83166332665329  0.383734249713631 8.81763527054107  1.15120274914089 7.93587174348697  L 6.90721649484536 1.32264529058116  C 7.67468499427262 0.44088176352705  8.55727376861398 0  9.55498281786942 0  C 10.5526918671249 0  11.4352806414662 0.44088176352705  12.2027491408935 1.32264529058116  L 65.8487972508591 62.9579158316633  Z " fill-rule="nonzero" fill="#010100" stroke="none" fill-opacity="0.466666666666667" transform="matrix(1 0 0 1 811 222 )" />
  </g>
</svg>