<?xml version="1.0" encoding="utf-8"?>
<svg version="1.1" xmlns:xlink="http://www.w3.org/1999/xlink" width="48px" height="51px" xmlns="http://www.w3.org/2000/svg">
  <g transform="matrix(1 0 0 1 -648 -735 )">
    <path d="M 47.8977272727273 39.5177556818182  C 47.9659090909091 39.6867897727273  48 39.9403409090909  48 40.2784090909091  C 48 40.9303977272727  47.8863636363636 41.7816051136364  47.6590909090909 42.83203125  C 47.4318181818182 43.8824573863636  47.1931818181818 44.7095170454545  46.9431818181818 45.3132102272727  C 46.4659090909091 46.5205965909091  45.0795454545455 47.8004261363636  42.7840909090909 49.1526988636364  C 40.6477272727273 50.3842329545455  38.5340909090909 51  36.4431818181818 51  C 35.8295454545455 51  35.2272727272727 50.9577414772727  34.6363636363636 50.8732244318182  C 34.0454545454545 50.7887073863636  33.3920454545455 50.6377840909091  32.6761363636364 50.4204545454545  C 31.9602272727273 50.203125  31.4261363636364 50.0280539772727  31.0738636363636 49.8952414772727  C 30.7215909090909 49.7624289772727  30.0909090909091 49.5149147727273  29.1818181818182 49.1526988636364  C 28.2727272727273 48.7904829545455  27.7159090909091 48.5731534090909  27.5113636363636 48.5007102272727  C 25.2840909090909 47.6555397727273  23.2954545454545 46.6534090909091  21.5454545454545 45.4943181818182  C 18.6590909090909 43.5866477272727  15.6590909090909 40.9786931818182  12.5454545454545 37.6704545454545  C 9.43181818181818 34.3622159090909  6.97727272727273 31.1747159090909  5.18181818181818 28.1079545454545  C 4.09090909090909 26.2485795454545  3.14772727272727 24.1356534090909  2.35227272727273 21.7691761363636  C 2.28409090909091 21.5518465909091  2.07954545454545 20.9602272727273  1.73863636363636 19.9943181818182  C 1.39772727272727 19.0284090909091  1.16477272727273 18.3583096590909  1.03977272727273 17.9840198863636  C 0.914772727272727 17.6097301136364  0.75 17.0422585227273  0.545454545454545 16.2816051136364  C 0.340909090909091 15.5209517045454  0.198863636363636 14.8267045454545  0.119318181818182 14.1988636363636  C 0.0397727272727273 13.5710227272727  0 12.9311079545455  0 12.2791193181818  C 0 10.0575284090909  0.579545454545455 7.81178977272727  1.73863636363636 5.54190340909091  C 3.01136363636364 3.10298295454545  4.21590909090909 1.62997159090909  5.35227272727273 1.12286931818182  C 5.92045454545455 0.857244318181814  6.69886363636364 0.603693181818176  7.6875 0.362215909090908  C 8.67613636363636 0.120738636363634  9.47727272727273 0  10.0909090909091 0  C 10.4090909090909 0  10.6477272727273 0.0362215909090919  10.8068181818182 0.10866477272727  C 11.2159090909091 0.253551136363638  11.8181818181818 1.17116477272727  12.6136363636364 2.86150568181818  C 12.8636363636364 3.32031249999999  13.2045454545455 3.97230113636363  13.6363636363636 4.81747159090909  C 14.0681818181818 5.66264204545454  14.4659090909091 6.42933238636364  14.8295454545455 7.11754261363636  C 15.1931818181818 7.80575284090909  15.5454545454545 8.45170454545454  15.8863636363636 9.05539772727273  C 15.9545454545455 9.15198863636363  16.1534090909091 9.45383522727273  16.4829545454545 9.9609375  C 16.8125 10.4680397727273  17.0568181818182 10.8966619318182  17.2159090909091 11.2468039772727  C 17.375 11.5969460227273  17.4545454545455 11.9410511363636  17.4545454545455 12.2791193181818  C 17.4545454545455 12.7620738636364  17.1306818181818 13.3657670454545  16.4829545454545 14.0901988636364  C 15.8352272727273 14.8146306818182  15.1306818181818 15.4786931818182  14.3693181818182 16.0823863636364  C 13.6079545454545 16.6860795454545  12.9034090909091 17.3259943181818  12.2556818181818 18.0021306818182  C 11.6079545454545 18.6782670454545  11.2840909090909 19.2336647727273  11.2840909090909 19.6683238636364  C 11.2840909090909 19.8856534090909  11.3409090909091 20.1573153409091  11.4545454545455 20.4833096590909  C 11.5681818181818 20.8093039772727  11.6647727272727 21.0568181818182  11.7443181818182 21.2258522727273  C 11.8238636363636 21.3948863636364  11.9829545454545 21.6846590909091  12.2215909090909 22.0951704545455  C 12.4602272727273 22.5056818181818  12.5909090909091 22.7350852272727  12.6136363636364 22.7833806818182  C 14.3409090909091 26.0916193181818  16.3181818181818 28.9289772727273  18.5454545454545 31.2954545454545  C 20.7727272727273 33.6619318181818  23.4431818181818 35.7627840909091  26.5568181818182 37.5980113636364  C 26.6022727272727 37.6221590909091  26.8181818181818 37.7610085227273  27.2045454545455 38.0145596590909  C 27.5909090909091 38.2681107954545  27.8636363636364 38.4371448863636  28.0227272727273 38.5216619318182  C 28.1818181818182 38.6061789772727  28.4147727272727 38.7088068181818  28.7215909090909 38.8295454545455  C 29.0284090909091 38.9502840909091  29.2840909090909 39.0106534090909  29.4886363636364 39.0106534090909  C 29.8977272727273 39.0106534090909  30.4204545454545 38.6665482954545  31.0568181818182 37.9783380681818  C 31.6931818181818 37.2901278409091  32.2954545454546 36.5415482954545  32.8636363636364 35.7325994318182  C 33.4318181818182 34.9236505681818  34.0568181818182 34.1750710227273  34.7386363636364 33.4868607954545  C 35.4204545454545 32.7986505681818  35.9886363636364 32.4545454545455  36.4431818181818 32.4545454545455  C 36.7613636363636 32.4545454545455  37.0852272727273 32.5390625  37.4147727272727 32.7080965909091  C 37.7443181818182 32.8771306818182  38.1477272727273 33.13671875  38.625 33.4868607954545  C 39.1022727272727 33.8370028409091  39.3863636363636 34.0482954545455  39.4772727272727 34.1207386363636  C 40.0454545454545 34.4829545454545  40.6534090909091 34.8572443181818  41.3011363636364 35.2436079545455  C 41.9488636363636 35.6299715909091  42.6704545454545 36.0525568181818  43.4659090909091 36.5113636363636  C 44.2613636363636 36.9701704545455  44.875 37.3323863636364  45.3068181818182 37.5980113636364  C 46.8977272727273 38.4431818181818  47.7613636363636 39.0830965909091  47.8977272727273 39.5177556818182  Z " fill-rule="nonzero" fill="#f4e1cc" stroke="none" transform="matrix(1 0 0 1 648 735 )" />
  </g>
</svg>