<?xml version="1.0" encoding="utf-8"?>
<svg version="1.1" xmlns:xlink="http://www.w3.org/1999/xlink" width="45px" height="49px" xmlns="http://www.w3.org/2000/svg">
  <g transform="matrix(1 0 0 1 -318 -738 )">
    <path d="M 44.9520936834634 1.86186079545454  C 45.0266146202981 2.33747632575757  44.9574166075231 2.79569128787879  44.7444996451384 3.23650568181818  L 24.3044712562101 47.7819602272727  C 23.9425124201561 48.5939867424242  23.3356990773598 49  22.4840312278211 49  C 22.3775727466288 49  22.2178850248403 48.9767992424242  22.0049680624556 48.9303977272727  C 21.5365507452094 48.8143939393939  21.1586231369766 48.5533854166667  20.8711852377573 48.1473721590909  C 20.583747338538 47.7413589015151  20.4400283889283 47.2831439393939  21 46.7727272727273  L 21 26  L 2.04400283889283 26  C 1.57558552164656 26.7272727272727  1.15507452093683 26.5706676136364  0.782469836763662 26.2574573863636  C 0.40986515259049 25.9442471590909  0.170333569907736 25.5324337121212  0.063875088715401 25.0220170454546  C -0.042583392476934 24.5116003787879  0 24.024384469697  0.191625266146203 23.5603693181818  C 0.383250532292406 23.0963541666667  0.691980127750177 22.7483428030303  1.11781405251952 22.5163352272727  L 41.9978708303762 0.243607954545456  C 42.2746628814762 0.0812026515151484  42.583392476934 0  42.9240596167495 0  C 43.4989354151881 0  43.9779985805536 0.220407196969692  44.361249112846 0.661221590909093  C 44.680624556423 0.986032196969692  44.8775727466288 1.38624526515151  44.9520936834634 1.86186079545454  Z " fill-rule="nonzero" fill="#f6e3cc" stroke="none" transform="matrix(1 0 0 1 318 738 )" />
  </g>
</svg>