<?xml version="1.0" encoding="utf-8"?>
<svg version="1.1" xmlns:xlink="http://www.w3.org/1999/xlink" width="25px" height="46px" xmlns="http://www.w3.org/2000/svg">
  <g transform="matrix(1 0 0 1 -316 -155 )">
    <path d="M 24.5704467353952 21.939879759519  C 24.8568155784651 22.247160988644  25 22.6005344021376  25 23  C 25 23.3994655978624  24.8568155784651 23.752839011356  24.5704467353952 24.060120240481  L 4.553264604811 45.5390781563126  C 4.26689576174112 45.8463593854375  3.93757159221077 46  3.56529209621993 46  C 3.1930126002291 46  2.86368843069874 45.8463593854375  2.57731958762887 45.5390781563126  L 0.429553264604811 43.2344689378758  C 0.143184421534937 42.9271877087508  0 42.5738142952572  0 42.1743486973948  C 0 41.7748830995324  0.143184421534937 41.4215096860387  0.429553264604811 41.1142284569138  L 17.3109965635739 23  L 0.429553264604811 4.88577154308617  C 0.143184421534937 4.57849031396125  0 4.2251169004676  0 3.82565130260521  C 0 3.42618570474281  0.143184421534937 3.07281229124916  0.429553264604811 2.76553106212425  L 2.57731958762887 0.460921843687375  C 2.86368843069874 0.153640614562457  3.1930126002291 0  3.56529209621993 0  C 3.93757159221077 0  4.26689576174112 0.153640614562457  4.553264604811 0.460921843687375  L 24.5704467353952 21.939879759519  Z " fill-rule="nonzero" fill="#010100" stroke="none" fill-opacity="0.466666666666667" transform="matrix(1 0 0 1 316 155 )" />
  </g>
</svg>