<?xml version="1.0" encoding="utf-8"?>
<svg version="1.1" xmlns:xlink="http://www.w3.org/1999/xlink" width="76px" height="76px" xmlns="http://www.w3.org/2000/svg">
  <g transform="matrix(1 0 0 1 -1725 -1085 )">
    <path d="M 23.2410714285714 3.01116071428571  C 27.9345238095238 1.00372023809524  32.8541666666667 0  38 0  C 43.1458333333333 0  48.0654761904762 1.00372023809524  52.7589285714286 3.01116071428571  C 57.452380952381 5.01860119047619  61.4955357142857 7.71875  64.8883928571429 11.1116071428571  C 68.28125 14.5044642857143  70.9813988095238 18.547619047619  72.9888392857143 23.2410714285714  C 74.9962797619048 27.9345238095238  76 32.8541666666667  76 38  C 76 43.1175595238095  75.0033482142857 48.0230654761905  73.0100446428571 52.7165178571429  C 71.0167410714286 57.4099702380952  68.3236607142857 61.453125  64.9308035714286 64.8459821428572  C 61.5379464285714 68.2388392857143  57.4947916666667 70.946056547619  52.8013392857143 72.9676339285714  C 48.1078869047619 74.9892113095238  43.1741071428571 76  38 76  C 32.8258928571429 76  27.8921130952381 74.9962797619048  23.1986607142857 72.9888392857143  C 18.5052083333333 70.9813988095238  14.4691220238095 68.274181547619  11.0904017857143 64.8671875  C 7.71168154761905 61.4601934523809  5.01860119047619 57.4170386904762  3.01116071428571 52.7377232142857  C 1.00372023809524 48.0584077380952  0 43.1458333333333  0 38  C 0 32.8541666666667  1.00372023809524 27.9345238095238  3.01116071428571 23.2410714285714  C 5.01860119047619 18.547619047619  7.71875 14.5044642857143  11.1116071428571 11.1116071428571  C 14.5044642857143 7.71875  18.5476190476191 5.01860119047619  23.2410714285714 3.01116071428571  Z M 51.2745535714286 43.4285714285714  C 58.0602678571429 43.4285714285714  62.3861607142857 48.0513392857143  64.2522321428571 57.296875  C 68.4650297619048 51.5007440476191  70.5714285714286 45.0684523809524  70.5714285714286 38  C 70.5714285714286 33.5892857142857  69.7090773809524 29.3764880952381  67.984375 25.3616071428571  C 66.2596726190476 21.3467261904762  63.9412202380953 17.8831845238095  61.0290178571429 14.9709821428571  C 58.1168154761905 12.0587797619048  54.6532738095238 9.74032738095238  50.6383928571429 8.015625  C 46.6235119047619 6.29092261904762  42.4107142857143 5.42857142857143  38 5.42857142857143  C 33.5892857142857 5.42857142857143  29.3764880952381 6.29092261904762  25.3616071428571 8.015625  C 21.3467261904762 9.74032738095238  17.8831845238095 12.0587797619048  14.9709821428571 14.9709821428571  C 12.0587797619048 17.8831845238095  9.74032738095238 21.3467261904762  8.015625 25.3616071428571  C 6.29092261904762 29.3764880952381  5.42857142857143 33.5892857142857  5.42857142857143 38  C 5.42857142857143 45.0684523809524  7.53497023809524 51.5007440476191  11.7477678571429 57.296875  C 13.6138392857143 48.0513392857143  17.9397321428571 43.4285714285714  24.7254464285714 43.4285714285714  C 28.4293154761905 47.0476190476191  32.8541666666667 48.8571428571429  38 48.8571428571429  C 43.1458333333333 48.8571428571429  47.5706845238095 47.0476190476191  51.2745535714286 43.4285714285714  Z M 49.5145089285714 41.3716517857143  C 52.6953125 38.1908482142857  54.2857142857143 34.3526785714286  54.2857142857143 29.8571428571429  C 54.2857142857143 25.3616071428571  52.6953125 21.5234375  49.5145089285714 18.3426339285714  C 46.3337053571429 15.1618303571429  42.4955357142857 13.5714285714286  38 13.5714285714286  C 33.5044642857143 13.5714285714286  29.6662946428571 15.1618303571429  26.4854910714286 18.3426339285714  C 23.3046875 21.5234375  21.7142857142857 25.3616071428571  21.7142857142857 29.8571428571429  C 21.7142857142857 34.3526785714286  23.3046875 38.1908482142857  26.4854910714286 41.3716517857143  C 29.6662946428571 44.5524553571429  33.5044642857143 46.1428571428571  38 46.1428571428571  C 42.4955357142857 46.1428571428571  46.3337053571429 44.5524553571429  49.5145089285714 41.3716517857143  Z " fill-rule="nonzero" fill="#e4e4e4" stroke="none" transform="matrix(1 0 0 1 1725 1085 )" />
  </g>
</svg>