<?xml version="1.0" encoding="utf-8"?>
<svg version="1.1" xmlns:xlink="http://www.w3.org/1999/xlink" width="67px" height="132px" xmlns="http://www.w3.org/2000/svg">
  <g transform="matrix(1 0 0 1 -19 -222 )">
    <path d="M 65.8487972508591 7.93587174348697  C 66.6162657502864 8.81763527054107  67 9.83166332665329  67 10.9779559118237  C 67 12.124248496994  66.6162657502864 13.1382765531062  65.8487972508591 14.0200400801603  L 20.606529209622 66  L 65.8487972508591 117.97995991984  C 66.6162657502864 118.861723446894  67 119.875751503006  67 121.022044088176  C 67 122.168336673347  66.6162657502864 123.182364729459  65.8487972508591 124.064128256513  L 60.0927835051546 130.677354709419  C 59.3253150057274 131.559118236473  58.442726231386 132  57.4450171821306 132  C 56.4473081328752 132  55.5647193585338 131.559118236473  54.7972508591065 130.677354709419  L 1.15120274914089 69.0420841683367  C 0.383734249713631 68.1603206412826  0 67.1462925851703  0 66  C 0 64.8537074148297  0.383734249713631 63.8396793587174  1.15120274914089 62.9579158316633  L 54.7972508591065 1.32264529058116  C 55.5647193585338 0.44088176352705  56.4473081328752 0  57.4450171821306 0  C 58.442726231386 0  59.3253150057274 0.44088176352705  60.0927835051546 1.32264529058116  L 65.8487972508591 7.93587174348697  Z " fill-rule="nonzero" fill="#010100" stroke="none" fill-opacity="0.466666666666667" transform="matrix(1 0 0 1 19 222 )" />
  </g>
</svg>